<svg width="18" height="19" viewBox="0 0 18 19" fill="none" xmlns="http://www.w3.org/2000/svg">
<path d="M8.99967 9.28078C11.3009 9.28078 13.1663 7.4153 13.1663 5.11412C13.1663 2.81293 11.3009 0.947449 8.99967 0.947449C6.69849 0.947449 4.83301 2.81293 4.83301 5.11412C4.83301 7.4153 6.69849 9.28078 8.99967 9.28078Z" stroke="#0D0C21" stroke-width="1.66667"/>
<path d="M13.1666 10.9474H13.4599C14.0691 10.9476 14.6573 11.1703 15.114 11.5735C15.5706 11.9768 15.8643 12.5329 15.9399 13.1374L16.2657 15.7408C16.295 15.9753 16.2741 16.2134 16.2044 16.4392C16.1346 16.665 16.0177 16.8734 15.8612 17.0506C15.7048 17.2278 15.5125 17.3696 15.297 17.4668C15.0816 17.5639 14.8479 17.6142 14.6116 17.6141H3.38822C3.15187 17.6142 2.91822 17.5639 2.70276 17.4668C2.4873 17.3696 2.29497 17.2278 2.13853 17.0506C1.9821 16.8734 1.86513 16.665 1.79539 16.4392C1.72566 16.2134 1.70475 15.9753 1.73405 15.7408L2.05905 13.1374C2.13463 12.5326 2.42857 11.9763 2.88558 11.573C3.34259 11.1697 3.9312 10.9472 4.54072 10.9474H4.83322" stroke="#0D0C21" stroke-width="1.66667" stroke-linecap="round" stroke-linejoin="round"/>
</svg>
